<svg width="258" height="113" viewBox="0 0 258 113" fill="none" xmlns="http://www.w3.org/2000/svg">
<g filter="url(#filter0_bd_1_178)">
<rect width="211.975" height="66.0557" rx="33.0278" transform="matrix(1 0 0 -1 23 85.0556)" fill="white"/>
<rect x="1.5" y="-1.5" width="208.975" height="63.0557" rx="31.5278" transform="matrix(1 0 0 -1 23 82.0556)" stroke="black" stroke-width="3"/>
<circle cx="199.586" cy="51.9699" r="15.5857" fill="black"/>
<path d="M201.723 46.8617L207.054 52.3082L207.647 52.9143L207.054 53.5213L201.723 58.9678L200.497 57.7547L204.388 53.779H190.449V52.0497H204.388L200.497 48.0748L201.723 46.8617H201.723Z" fill="white"/>
</g>
<path d="M58.2817 50.4058C57.9937 49.8778 57.5977 49.4758 57.0937 49.1998C56.5897 48.9238 56.0017 48.7858 55.3297 48.7858C54.5857 48.7858 53.9257 48.9538 53.3497 49.2898C52.7737 49.6258 52.3237 50.1058 51.9997 50.7298C51.6757 51.3538 51.5137 52.0738 51.5137 52.8898C51.5137 53.7298 51.6757 54.4618 51.9997 55.0858C52.3357 55.7098 52.7977 56.1898 53.3857 56.5258C53.9737 56.8618 54.6577 57.0298 55.4377 57.0298C56.3977 57.0298 57.1837 56.7778 57.7957 56.2738C58.4077 55.7578 58.8097 55.0438 59.0017 54.1318H54.6817V52.2058H61.4857V54.4018C61.3177 55.2778 60.9577 56.0878 60.4057 56.8318C59.8537 57.5758 59.1397 58.1758 58.2637 58.6318C57.3997 59.0758 56.4277 59.2978 55.3477 59.2978C54.1357 59.2978 53.0377 59.0278 52.0537 58.4878C51.0817 57.9358 50.3137 57.1738 49.7497 56.2018C49.1977 55.2298 48.9217 54.1258 48.9217 52.8898C48.9217 51.6538 49.1977 50.5498 49.7497 49.5778C50.3137 48.5938 51.0817 47.8318 52.0537 47.2918C53.0377 46.7398 54.1297 46.4638 55.3297 46.4638C56.7457 46.4638 57.9757 46.8118 59.0197 47.5078C60.0637 48.1918 60.7837 49.1578 61.1797 50.4058H58.2817ZM72.6201 53.9878C72.6201 54.3478 72.5961 54.6718 72.5481 54.9598H65.2581C65.3181 55.6798 65.5701 56.2438 66.0141 56.6518C66.4581 57.0598 67.0041 57.2638 67.6521 57.2638C68.5881 57.2638 69.2541 56.8618 69.6501 56.0578H72.3681C72.0801 57.0178 71.5281 57.8098 70.7121 58.4338C69.8961 59.0458 68.8941 59.3518 67.7061 59.3518C66.7461 59.3518 65.8821 59.1418 65.1141 58.7218C64.3581 58.2898 63.7641 57.6838 63.3321 56.9038C62.9121 56.1238 62.7021 55.2238 62.7021 54.2038C62.7021 53.1718 62.9121 52.2658 63.3321 51.4858C63.7521 50.7058 64.3401 50.1058 65.0961 49.6858C65.8521 49.2658 66.7221 49.0558 67.7061 49.0558C68.6541 49.0558 69.5001 49.2598 70.2441 49.6678C71.0001 50.0758 71.5821 50.6578 71.9901 51.4138C72.4101 52.1578 72.6201 53.0158 72.6201 53.9878ZM70.0101 53.2678C69.9981 52.6198 69.7641 52.1038 69.3081 51.7198C68.8521 51.3238 68.2941 51.1258 67.6341 51.1258C67.0101 51.1258 66.4821 51.3178 66.0501 51.7018C65.6301 52.0738 65.3721 52.5958 65.2761 53.2678H70.0101ZM77.3934 51.2878V56.1118C77.3934 56.4478 77.4714 56.6938 77.6274 56.8498C77.7954 56.9938 78.0714 57.0658 78.4554 57.0658H79.6254V59.1898H78.0414C75.9174 59.1898 74.8554 58.1578 74.8554 56.0938V51.2878H73.6674V49.2178H74.8554V46.7518H77.3934V49.2178H79.6254V51.2878H77.3934ZM90.065 59.3158C89.189 59.3158 88.397 59.1658 87.689 58.8658C86.993 58.5658 86.441 58.1338 86.033 57.5698C85.625 57.0058 85.415 56.3398 85.403 55.5718H88.103C88.139 56.0878 88.319 56.4958 88.643 56.7958C88.979 57.0958 89.435 57.2458 90.011 57.2458C90.599 57.2458 91.061 57.1078 91.397 56.8318C91.733 56.5438 91.901 56.1718 91.901 55.7158C91.901 55.3438 91.787 55.0378 91.559 54.7978C91.331 54.5578 91.043 54.3718 90.695 54.2398C90.359 54.0958 89.891 53.9398 89.291 53.7718C88.475 53.5318 87.809 53.2978 87.293 53.0698C86.789 52.8298 86.351 52.4758 85.979 52.0078C85.619 51.5278 85.439 50.8918 85.439 50.0998C85.439 49.3558 85.625 48.7078 85.997 48.1558C86.369 47.6038 86.891 47.1838 87.563 46.8958C88.235 46.5958 89.003 46.4458 89.867 46.4458C91.163 46.4458 92.213 46.7638 93.017 47.3998C93.833 48.0238 94.283 48.8998 94.367 50.0278H91.595C91.571 49.5958 91.385 49.2418 91.037 48.9658C90.701 48.6778 90.251 48.5338 89.687 48.5338C89.195 48.5338 88.799 48.6598 88.499 48.9118C88.211 49.1638 88.067 49.5298 88.067 50.0098C88.067 50.3458 88.175 50.6278 88.391 50.8558C88.619 51.0718 88.895 51.2518 89.219 51.3958C89.555 51.5278 90.023 51.6838 90.623 51.8638C91.439 52.1038 92.105 52.3438 92.621 52.5838C93.137 52.8238 93.581 53.1838 93.953 53.6638C94.325 54.1438 94.511 54.7738 94.511 55.5538C94.511 56.2258 94.337 56.8498 93.989 57.4258C93.641 58.0018 93.131 58.4638 92.459 58.8118C91.787 59.1478 90.989 59.3158 90.065 59.3158ZM99.6298 51.2878V56.1118C99.6298 56.4478 99.7078 56.6938 99.8638 56.8498C100.032 56.9938 100.308 57.0658 100.692 57.0658H101.862V59.1898H100.278C98.1538 59.1898 97.0918 58.1578 97.0918 56.0938V51.2878H95.9038V49.2178H97.0918V46.7518H99.6298V49.2178H101.862V51.2878H99.6298ZM103.026 54.1678C103.026 53.1598 103.224 52.2658 103.62 51.4858C104.028 50.7058 104.574 50.1058 105.258 49.6858C105.954 49.2658 106.728 49.0558 107.58 49.0558C108.324 49.0558 108.972 49.2058 109.524 49.5058C110.088 49.8058 110.538 50.1838 110.874 50.6398V49.2178H113.412V59.1898H110.874V57.7318C110.55 58.1998 110.1 58.5898 109.524 58.9018C108.96 59.2018 108.306 59.3518 107.562 59.3518C106.722 59.3518 105.954 59.1358 105.258 58.7038C104.574 58.2718 104.028 57.6658 103.62 56.8858C103.224 56.0938 103.026 55.1878 103.026 54.1678ZM110.874 54.2038C110.874 53.5918 110.754 53.0698 110.514 52.6378C110.274 52.1938 109.95 51.8578 109.542 51.6298C109.134 51.3898 108.696 51.2698 108.228 51.2698C107.76 51.2698 107.328 51.3838 106.932 51.6118C106.536 51.8398 106.212 52.1758 105.96 52.6198C105.72 53.0518 105.6 53.5678 105.6 54.1678C105.6 54.7678 105.72 55.2958 105.96 55.7518C106.212 56.1958 106.536 56.5378 106.932 56.7778C107.34 57.0178 107.772 57.1378 108.228 57.1378C108.696 57.1378 109.134 57.0238 109.542 56.7958C109.95 56.5558 110.274 56.2198 110.514 55.7878C110.754 55.3438 110.874 54.8158 110.874 54.2038ZM118.394 50.7658C118.718 50.2378 119.138 49.8238 119.654 49.5238C120.182 49.2238 120.782 49.0738 121.454 49.0738V51.7198H120.788C119.996 51.7198 119.396 51.9058 118.988 52.2778C118.592 52.6498 118.394 53.2978 118.394 54.2218V59.1898H115.874V49.2178H118.394V50.7658ZM126.085 51.2878V56.1118C126.085 56.4478 126.163 56.6938 126.319 56.8498C126.487 56.9938 126.763 57.0658 127.147 57.0658H128.317V59.1898H126.733C124.609 59.1898 123.547 58.1578 123.547 56.0938V51.2878H122.359V49.2178H123.547V46.7518H126.085V49.2178H128.317V51.2878H126.085ZM139.399 53.9878C139.399 54.3478 139.375 54.6718 139.327 54.9598H132.037C132.097 55.6798 132.349 56.2438 132.793 56.6518C133.237 57.0598 133.783 57.2638 134.431 57.2638C135.367 57.2638 136.033 56.8618 136.429 56.0578H139.147C138.859 57.0178 138.307 57.8098 137.491 58.4338C136.675 59.0458 135.673 59.3518 134.485 59.3518C133.525 59.3518 132.661 59.1418 131.893 58.7218C131.137 58.2898 130.543 57.6838 130.111 56.9038C129.691 56.1238 129.481 55.2238 129.481 54.2038C129.481 53.1718 129.691 52.2658 130.111 51.4858C130.531 50.7058 131.119 50.1058 131.875 49.6858C132.631 49.2658 133.501 49.0558 134.485 49.0558C135.433 49.0558 136.279 49.2598 137.023 49.6678C137.779 50.0758 138.361 50.6578 138.769 51.4138C139.189 52.1578 139.399 53.0158 139.399 53.9878ZM136.789 53.2678C136.777 52.6198 136.543 52.1038 136.087 51.7198C135.631 51.3238 135.073 51.1258 134.413 51.1258C133.789 51.1258 133.261 51.3178 132.829 51.7018C132.409 52.0738 132.151 52.5958 132.055 53.2678H136.789ZM140.591 54.1678C140.591 53.1598 140.789 52.2658 141.185 51.4858C141.593 50.7058 142.145 50.1058 142.841 49.6858C143.537 49.2658 144.311 49.0558 145.163 49.0558C145.811 49.0558 146.429 49.1998 147.017 49.4878C147.605 49.7638 148.073 50.1358 148.421 50.6038V45.8698H150.977V59.1898H148.421V57.7138C148.109 58.2058 147.671 58.6018 147.107 58.9018C146.543 59.2018 145.889 59.3518 145.145 59.3518C144.305 59.3518 143.537 59.1358 142.841 58.7038C142.145 58.2718 141.593 57.6658 141.185 56.8858C140.789 56.0938 140.591 55.1878 140.591 54.1678ZM148.439 54.2038C148.439 53.5918 148.319 53.0698 148.079 52.6378C147.839 52.1938 147.515 51.8578 147.107 51.6298C146.699 51.3898 146.261 51.2698 145.793 51.2698C145.325 51.2698 144.893 51.3838 144.497 51.6118C144.101 51.8398 143.777 52.1758 143.525 52.6198C143.285 53.0518 143.165 53.5678 143.165 54.1678C143.165 54.7678 143.285 55.2958 143.525 55.7518C143.777 56.1958 144.101 56.5378 144.497 56.7778C144.905 57.0178 145.337 57.1378 145.793 57.1378C146.261 57.1378 146.699 57.0238 147.107 56.7958C147.515 56.5558 147.839 56.2198 148.079 55.7878C148.319 55.3438 148.439 54.8158 148.439 54.2038Z" fill="black"/>
<defs>
<filter id="filter0_bd_1_178" x="3.05176e-05" y="-0.00012207" width="257.975" height="112.056" filterUnits="userSpaceOnUse" color-interpolation-filters="sRGB">
<feFlood flood-opacity="0" result="BackgroundImageFix"/>
<feGaussianBlur in="BackgroundImageFix" stdDeviation="5"/>
<feComposite in2="SourceAlpha" operator="in" result="effect1_backgroundBlur_1_178"/>
<feColorMatrix in="SourceAlpha" type="matrix" values="0 0 0 0 0 0 0 0 0 0 0 0 0 0 0 0 0 0 127 0" result="hardAlpha"/>
<feMorphology radius="1" operator="erode" in="SourceAlpha" result="effect2_dropShadow_1_178"/>
<feOffset dy="4"/>
<feGaussianBlur stdDeviation="12"/>
<feComposite in2="hardAlpha" operator="out"/>
<feColorMatrix type="matrix" values="0 0 0 0 0 0 0 0 0 0 0 0 0 0 0 0 0 0 1 0"/>
<feBlend mode="normal" in2="effect1_backgroundBlur_1_178" result="effect2_dropShadow_1_178"/>
<feBlend mode="normal" in="SourceGraphic" in2="effect2_dropShadow_1_178" result="shape"/>
</filter>
</defs>
</svg>
