<svg width="29" height="29" viewBox="0 0 29 29" fill="none" xmlns="http://www.w3.org/2000/svg">
<circle cx="14.5" cy="14.5" r="14.5" fill="black"/>
<path d="M19 10.75V18.25C19 18.6638 18.6638 19 18.25 19C17.8362 19 17.5 18.6638 17.5 18.25V15.819C17.5 15.4052 17.1638 15.069 16.75 15.069H15.25C14.8362 15.069 14.5 15.4052 14.5 15.819V16.1293C14.5 16.5431 14.1638 16.8793 13.75 16.8793C13.3362 16.8793 13 16.5431 13 16.1293V12.5733C13 12.1595 13.3362 11.8233 13.75 11.8233C14.1638 11.8233 14.5 12.1595 14.5 12.5733V12.8319C14.5 13.2457 14.8362 13.5819 15.25 13.5819H16.7629C17.1767 13.5819 17.5129 13.2457 17.5129 12.8319V10.75C17.5129 10.3362 17.8491 10 18.2629 10C18.6638 10.0129 19 10.3362 19 10.75Z" fill="white"/>
<path d="M18.1416 20.725C17.9225 20.725 17.7033 20.829 17.5743 21.0109C16.8394 21.9726 15.6661 22.5964 14.3638 22.5964C12.159 22.5964 10.3667 20.842 10.3667 18.6977V10.4193C10.3667 8.27497 12.1719 6.52052 14.3638 6.52052C15.7047 6.52052 16.891 7.17031 17.6259 8.158C17.7677 8.33995 17.974 8.45691 18.2061 8.45691H18.2835C18.8508 8.45691 19.1989 7.80711 18.8766 7.33926C17.9225 5.9357 16.2978 5 14.454 5H14.2993C11.3853 5 9 7.32626 9 10.1594V18.8406C9 21.6737 11.3853 24 14.2993 24H14.454C16.2076 24 17.7548 23.1683 18.7219 21.8817C19.0571 21.4138 18.7348 20.725 18.1416 20.725Z" fill="white"/>
</svg>
